<svg xmlns="http://www.w3.org/2000/svg" viewBox="0 0 1920 1080">
  <defs>
    <linearGradient id="g" x1="0" y1="0" x2="1" y2="1">
      <stop offset="0" stop-color="#120735"/>
      <stop offset="0.45" stop-color="#182f72"/>
      <stop offset="1" stop-color="#2a0f55"/>
    </linearGradient>
    <radialGradient id="glowA" cx="20%" cy="14%" r="46%">
      <stop offset="0" stop-color="#5bd5ff" stop-opacity="0.42"/>
      <stop offset="1" stop-color="#5bd5ff" stop-opacity="0"/>
    </radialGradient>
    <radialGradient id="glowB" cx="88%" cy="80%" r="38%">
      <stop offset="0" stop-color="#ff73f8" stop-opacity="0.37"/>
      <stop offset="1" stop-color="#ff73f8" stop-opacity="0"/>
    </radialGradient>
  </defs>
  <rect width="1920" height="1080" fill="url(#g)"/>
  <rect width="1920" height="1080" fill="url(#glowA)"/>
  <rect width="1920" height="1080" fill="url(#glowB)"/>
  <g opacity="0.7">
    <circle cx="120" cy="120" r="2" fill="#ffffff"/>
    <circle cx="280" cy="220" r="2" fill="#c9f7ff"/>
    <circle cx="430" cy="90" r="1.8" fill="#d9d8ff"/>
    <circle cx="560" cy="260" r="2" fill="#f5d7ff"/>
    <circle cx="770" cy="180" r="2" fill="#ffffff"/>
    <circle cx="980" cy="120" r="1.8" fill="#c9f7ff"/>
    <circle cx="1160" cy="230" r="2" fill="#ffffff"/>
    <circle cx="1360" cy="140" r="2" fill="#d9d8ff"/>
    <circle cx="1540" cy="200" r="1.9" fill="#f5d7ff"/>
    <circle cx="1760" cy="110" r="2" fill="#ffffff"/>
    <circle cx="166" cy="360" r="2" fill="#c9f7ff"/>
    <circle cx="340" cy="430" r="1.8" fill="#ffffff"/>
    <circle cx="620" cy="390" r="2" fill="#f5d7ff"/>
    <circle cx="860" cy="330" r="2" fill="#ffffff"/>
    <circle cx="1100" cy="450" r="1.8" fill="#d9d8ff"/>
    <circle cx="1290" cy="360" r="2" fill="#ffffff"/>
    <circle cx="1470" cy="470" r="2" fill="#c9f7ff"/>
    <circle cx="1700" cy="350" r="1.8" fill="#f5d7ff"/>
    <circle cx="1880" cy="430" r="2" fill="#ffffff"/>
    <circle cx="210" cy="730" r="2" fill="#ffffff"/>
    <circle cx="400" cy="860" r="2" fill="#d9d8ff"/>
    <circle cx="650" cy="800" r="1.9" fill="#ffffff"/>
    <circle cx="910" cy="920" r="2" fill="#f5d7ff"/>
    <circle cx="1130" cy="790" r="2" fill="#ffffff"/>
    <circle cx="1340" cy="930" r="1.8" fill="#c9f7ff"/>
    <circle cx="1550" cy="820" r="2" fill="#ffffff"/>
    <circle cx="1740" cy="940" r="1.8" fill="#f5d7ff"/>
  </g>
  <g opacity="0.25">
    <path d="M0 740 C 280 640, 540 810, 820 730 S 1360 680, 1920 760" stroke="#76d7ff" stroke-width="4" fill="none"/>
    <path d="M0 780 C 320 690, 600 860, 920 770 S 1440 730, 1920 810" stroke="#ff83ec" stroke-width="4" fill="none"/>
  </g>
</svg>